<?xml version="1.0" encoding="UTF-8"?>
<svg width="379px" height="590px" viewBox="0 0 379 590" version="1.1" xmlns="http://www.w3.org/2000/svg" xmlns:xlink="http://www.w3.org/1999/xlink">
    <!-- Generator: Sketch 53.2 (72643) - https://sketchapp.com -->
    <title>资源 1</title>
    <desc>Created with Sketch.</desc>
    <defs>
        <filter x="-6.5%" y="-3.0%" width="112.9%" height="106.0%" filterUnits="objectBoundingBox" id="filter-1">
            <feOffset dx="0" dy="0" in="SourceAlpha" result="shadowOffsetOuter1"></feOffset>
            <feGaussianBlur stdDeviation="12.5" in="shadowOffsetOuter1" result="shadowBlurOuter1"></feGaussianBlur>
            <feColorMatrix values="0 0 0 0 0   0 0 0 0 0   0 0 0 0 0  0 0 0 0.452059659 0" type="matrix" in="shadowBlurOuter1" result="shadowMatrixOuter1"></feColorMatrix>
            <feMerge>
                <feMergeNode in="shadowMatrixOuter1"></feMergeNode>
                <feMergeNode in="SourceGraphic"></feMergeNode>
            </feMerge>
        </filter>
    </defs>
    <g id="Page-1-Copy" stroke="none" stroke-width="1" fill="none" fill-rule="evenodd">
        <g id="06-Intro" filter="url(#filter-1)" transform="translate(-366.000000, -623.000000)" fill-rule="nonzero">
            <g id="分组-3">
                <g id="资源-1" transform="translate(390.000000, 647.000000)">
                    <path d="M315.013706,245.695787 C318.532006,246.146099 322.091217,246.432662 325.568607,247.046724 C327.002627,247.543674 328.375211,248.20295 329.659654,249.011724 C327.982325,249.912349 326.304996,251.508911 324.586756,251.631724 C321.574712,251.574201 318.57487,251.231527 315.627363,250.608286 L314.727333,251.754536 C316.527393,254.456411 318.163812,257.281098 320.127515,259.942035 C322.091217,262.602973 325.404965,266.000785 327.818683,269.19391 C330.886968,273.287659 332.605208,277.381409 328.882355,282.416721 L322.29577,282.416721 C322.541232,281.516096 323.277621,280.206096 322.909427,279.796721 C320.240405,276.471547 317.400097,273.287755 314.400049,270.258285 C313.704571,269.562347 311.986331,269.84891 309.531703,269.562347 L319.391126,280.328909 C317.018319,280.328909 314.318228,283.112659 312.477257,279.305471 L315.136437,279.673909 L315.709184,278.650471 L306.381597,270.708597 L305.236104,271.936722 L307.649821,275.416409 C302.740565,271.32266 296.276711,267.924847 293.290246,262.64391 C288.503721,254.210786 281.017105,249.339224 274.348699,243.116724 C261.052796,230.548913 245.015892,220.764851 235.361021,204.553602 C233.426244,201.206919 231.691327,197.748463 230.165391,194.196416 C225.828882,184.576104 221.574193,174.873917 216.99222,164.475793 C210.119261,174.546417 205.128184,183.634542 204.719079,194.687666 C204.023601,211.062664 203.287213,227.151101 207.951006,243.321412 C210.249523,253.674284 211.78101,264.182849 212.532979,274.761409 C213.555741,282.621409 214.578502,290.481408 215.478533,298.341407 C218.698517,324.460665 216.370381,350.965939 208.646484,376.122651 C206.509659,383.41673 206.242345,391.131742 207.869185,398.556399 C210.347285,411.459975 210.180267,424.732788 207.37826,437.569834 C204.841811,452.225457 203.287213,467.126706 201.650794,481.905143 C201.163436,484.978779 200.917222,488.08587 200.914405,491.197954 C201.046906,499.311727 201.716577,507.407797 202.919018,515.432952 C204.237598,520.583915 206.453405,525.46191 209.464694,529.842951 C210.773829,531.930764 213.923935,532.872326 216.010369,534.632638 C217.033131,535.492326 218.342266,537.170763 218.096803,538.153263 C217.442334,539.453352 216.185175,540.343149 214.742144,540.527638 C206.069125,540.527638 197.396105,540.527638 188.723085,540.527638 C187.534911,540.684022 186.33796,540.31122 185.448365,539.507692 C184.55877,538.704164 184.066,537.550725 184.100202,536.352013 C183.730936,534.253048 183.730936,532.105667 184.100202,530.006701 C187.659413,518.707952 185.859353,507.122641 185.941173,495.660141 C185.991594,488.799138 185.416464,481.947835 184.222934,475.191393 C182.586515,466.512644 180.131887,457.997644 177.759079,449.40077 C174.499543,434.978389 174.401843,420.020495 177.472706,405.556711 C178.781841,398.024212 176.736318,389.836712 175.918108,381.976713 C174.854436,372.151714 172.972554,362.40859 172.358897,352.542653 C171.499778,339.197029 171.663419,325.76953 171.090673,312.342031 C170.663662,307.52174 169.994612,302.725993 169.08606,297.97297 C168.431492,293.306095 167.858746,288.639221 167.204178,283.972346 C167.047727,282.49842 166.274781,281.159746 165.076834,280.287971 C164.176803,286.101096 163.563146,291.955158 162.376743,297.686407 C159.226637,312.956094 160.126667,328.430467 159.226637,343.822966 C158.326606,359.215465 155.13559,375.631401 153.703723,391.597025 C153.309404,398.196507 153.693888,404.819497 154.849216,411.328898 C157.020018,422.834471 156.811168,434.663175 154.235559,446.084833 C151.576379,456.032645 148.712646,465.939519 146.053465,475.928268 C145.121351,479.619095 144.708266,483.421984 144.826151,487.227017 C145.153435,501.473266 143.148822,515.883265 147.117138,530.006701 C147.632937,532.084626 147.688786,534.250233 147.280779,536.352013 C147.194624,537.747312 146.523282,539.041219 145.43238,539.914518 C144.341477,540.787816 142.932595,541.159188 141.553314,540.937013 C133.37122,540.65045 125.189126,540.937013 117.007032,540.937013 C115.370613,540.937013 113.816015,539.381388 112.220507,538.562638 C113.325089,537.211701 114.306941,535.778888 115.493344,534.468888 C118.01162,532.36424 120.276896,529.973826 122.243572,527.345764 C127.193739,518.42139 131.366607,509.046703 130.671129,498.689516 C129.239262,477.402018 128.502874,456.073582 123.225423,435.236396 C119.788944,421.808897 121.507183,408.504211 123.879991,394.994837 C124.942746,388.43642 124.452305,381.719948 122.448124,375.385776 C115.105884,353.407099 112.580356,330.103831 115.043329,307.061094 C117.416136,285.814533 119.46166,264.486098 123.225423,243.485162 C126.130075,231.917772 127.342738,219.989965 126.825544,208.074227 C125.720962,197.266728 127.357381,185.804229 121.261721,175.81548 L114.26603,164.393918 C109.438595,175.119542 105.470279,185.231104 100.479202,194.810478 C97.0732587,202.276909 92.5482625,209.179326 87.0605678,215.279227 C73.3555604,228.829538 58.4232389,241.192662 44.3909477,254.210786 C42.1487168,256.737598 40.1617078,259.480111 38.4589296,262.398285 C35.186092,266.942347 31.9541649,271.527347 25.8994153,272.632659 C22.5856673,271.527347 15.0172303,276.726409 15.508156,279.919534 C15.508156,280.206096 16.6536491,280.287971 17.2673062,280.492659 L10.2307054,281.516096 L21.2765322,269.562347 C18.821904,269.807972 17.1854852,269.562347 16.6536491,270.094535 C13.5444534,273.164847 10.5579891,276.439847 7.77607716,279.796721 C7.53061434,280.083284 8.6761075,281.597971 9.20794361,282.498596 L1.80314856,282.498596 C-3.59703346,273.001097 4.50323957,268.334222 8.18518186,262.357348 C10.7125497,258.528856 13.443859,254.839152 16.3672758,251.304224 C10.9261833,249.994224 5.32144897,254.579223 0.984939162,248.970786 C1.84405903,248.274849 2.58044749,247.292349 3.48047782,247.087661 C9.28976455,245.804953 15.1399617,244.617766 21.0310694,243.526099 C22.422887,243.102691 23.8957108,243.018474 25.3266687,243.280474 C30.6450298,245.327349 33.9178674,242.502662 37.190705,239.186725 C46.7280818,229.199756 54.2315059,217.45053 59.2823587,204.59454 C62.1386005,195.383195 67.8748203,187.332832 75.6465467,181.628604 C80.8421763,178.148917 81.251281,172.04923 81.8649381,166.399855 C82.5992091,156.544079 85.8842636,147.04922 91.3970776,138.84892 C93.3142685,135.138323 94.4293921,131.065433 94.6699152,126.895171 C95.3653932,122.801421 95.1608408,118.421109 95.8972293,114.245485 C97.8341692,104.451141 105.803398,96.9874101 115.697897,95.7007986 C121.121801,94.3253074 126.397369,92.4193634 131.448428,90.0104866 C135.744027,88.2501742 139.630522,85.6711119 144.171584,84.1973621 C148.712646,82.7236122 149.571766,80.4311124 149.93996,76.0098627 C150.520671,69.9710594 148.681292,63.9486339 144.826151,59.2664266 C141.263006,55.0148383 139.092157,49.7699175 138.60776,44.2423653 C138.198655,41.8679905 137.421356,40.1486156 140.244179,38.4292408 C141.103298,37.9379908 140.653283,35.154241 140.857836,33.3939287 C140.884175,27.0463981 141.667003,20.7246659 143.189732,14.5626802 C146.585301,4.57393098 154.440112,0.0708063416 165.485939,0.0708063416 C174.510636,-0.652574656 183.06017,4.217548 187.045756,12.3520554 C188.912849,17.1386011 190.150523,22.1476122 190.727698,27.2533042 C191.586818,31.3470538 191.054982,35.8501785 192.200475,40.3942406 C194.411277,46.686346 192.390696,53.6890774 187.168488,57.8336142 C183.077441,60.699239 179.927334,76.4192377 182.095589,80.9632998 C182.793832,82.2210133 183.886487,83.2136846 185.204785,83.7879871 C190.441325,86.2032994 195.718776,88.5367367 201.118958,90.6245491 C206.680647,92.9208279 212.361777,94.9160031 218.137713,96.6014236 C231.965452,100.203923 235.156469,107.61361 235.647394,118.339234 C235.748144,126.912407 238.08943,135.30991 242.438532,142.697045 C247.164949,150.49299 249.629727,159.451429 249.556954,168.569543 C249.556954,175.447042 253.648001,179.417979 258.270884,183.470792 C265.266575,189.693291 268.743964,197.962665 272.466817,206.354852 C276.523823,214.582307 281.172569,222.504078 286.376377,230.057663 C288.186239,232.56557 290.182899,234.933039 292.349306,237.13985 C296.153979,241.602037 299.999563,245.327349 306.872522,243.362349 C309.24533,242.707349 312.436346,244.917974 315.054616,245.859537 L306.831612,245.040787 C313.100275,249.210407 320.780042,250.685424 328.145967,249.134536 L315.013706,245.695787 Z M140.244179,214.092039 C142.412434,210.857977 145.112525,207.173602 147.3626,203.28454 C153.703723,192.436103 159.922115,181.505792 161.763086,168.815168 C162.452774,165.372949 162.19831,161.808099 161.026697,158.498919 C158.408427,152.849544 154.399201,147.814232 151.290005,142.12392 C149.057375,137.508125 144.570465,134.400945 139.46688,133.936421 C135.58858,133.548822 131.736368,132.933701 127.930127,132.094233 C122.489035,130.907046 117.088853,129.474233 111.156835,128.000484 C111.893223,134.509546 112.220507,140.281733 113.325089,146.135795 C115.820628,159.153919 119.175287,171.844543 129.198352,181.628604 C131.700784,183.986269 133.583688,186.924976 134.680355,190.184541 C136.930431,198.167353 138.444118,206.191102 140.244179,214.092039 Z M219.365027,128.491734 C210.119261,130.456733 201.609883,132.872046 192.977774,133.813608 C186.705308,134.113581 181.157614,137.978854 178.70002,143.76142 C176.286303,148.673919 172.849823,153.095169 170.027001,157.802981 C168.994438,159.170788 168.434437,160.83753 168.431492,162.551731 C169.382172,169.491208 170.914908,176.338296 173.013465,183.020479 C177.605071,194.796348 183.904681,205.831396 191.70955,215.770476 C191.70955,211.881414 191.70955,209.302352 191.70955,206.72329 C191.703376,197.815733 194.947502,189.21239 200.832584,182.529229 C215.642175,167.259543 217.360414,148.059857 219.365027,128.491734 Z M206.437319,293.101408 C211.510217,273.574222 207.951006,239.022975 192.732311,226.373288 C187.495771,233.946725 182.300142,241.602037 176.981781,249.216411 C174.642922,251.995898 172.483907,254.922065 170.517926,257.977036 C162.908579,272.059534 170.517926,287.533908 185.695711,289.294221 C192.527759,289.908283 199.277987,291.709533 206.437319,293.101408 Z M137.503177,226.577976 C123.225423,240.987974 120.893526,277.504222 125.761872,293.797345 C132.348458,292.159845 138.730491,290.194845 145.317077,289.048596 C154.644664,287.411096 159.963025,283.481096 161.967638,275.088909 C163.843055,267.868964 162.337865,260.187422 157.876591,254.210786 L137.503177,226.577976 Z M168.636045,62.5004888 L167.736014,62.5004888 L167.736014,153.177044 L169.536075,153.668294 C173.036808,145.929257 176.069648,137.986715 178.618199,129.883608 C182.709246,115.105172 189.418563,102.905798 205.250915,95.3323612 C197.068821,91.8117365 190.523146,88.4139242 183.527456,86.0395494 C176.648393,84.0934433 171.465246,78.4151783 170.149732,71.3839256 C169.454254,68.4773633 169.12697,65.5708011 168.636045,62.5004888 Z M125.802783,95.2504862 C140.857836,103.888298 146.258018,111.093297 151.044543,126.895171 C153.703723,135.983295 156.117441,145.194232 162.704027,152.931419 L162.704027,62.5823638 C161.897733,63.3077111 161.412159,64.3236733 161.353981,65.4070511 C160.535772,77.6883001 156.444725,82.6417372 144.989793,86.8173619 C138.730491,89.1507992 132.716652,92.2620489 125.802783,95.3732987 L125.802783,95.2504862 Z M138.730491,295.84422 C138.283515,298.072401 137.996409,300.329725 137.871371,302.598907 C138.444118,324.45953 138.812312,346.361091 139.875984,368.098902 C140.724662,376.015728 143.835228,383.520129 148.835377,389.7139 C156.731098,356.227028 149.244482,325.974218 138.730491,295.762345 L138.730491,295.84422 Z M182.259231,390.000462 C187.429799,383.060413 190.650373,374.862311 191.586818,366.256714 C192.56867,348.653591 193.100506,331.00953 193.50961,313.365469 C193.50961,307.470469 192.936864,301.57547 192.60958,295.68047 C181.768306,325.93328 174.608973,356.472653 182.259231,390.000462 Z M201.691704,376.941401 L203.000839,376.941401 C203.696317,373.993901 204.432706,371.046401 205.046363,368.098902 C208.564663,350.454841 211.264754,332.728905 208.3192,314.880156 C207.742686,306.364884 202.974119,298.693314 195.596044,294.411408 C196.659717,318.318906 197.559747,341.448591 198.827971,364.496402 C199.441482,368.715999 200.39926,372.87824 201.691704,376.941401 L201.691704,376.941401 Z M136.234953,293.961095 C128.90337,297.631506 123.984519,304.828917 123.225423,312.997031 C119.134376,334.775779 123.593617,355.981403 128.748337,377.105151 C137.871371,350.291091 130.916591,322.126093 136.112221,293.961095 L136.234953,293.961095 Z M168.717866,186.254541 L168.717866,250.444536 L170.517926,251.222349 C177.186333,240.537662 183.89565,229.893913 189.623116,220.805789 C181.522843,207.664852 174.608973,196.202353 168.595134,186.254541 L168.717866,186.254541 Z M140.653283,380.789526 C140.405234,381.760041 140.213994,382.744214 140.080537,383.737025 C140.080537,402.322649 139.875984,420.908272 140.080537,439.534833 C140.132083,442.779648 140.684061,445.997039 141.716956,449.07327 C142.360578,450.804384 143.788028,452.126406 145.56254,452.634832 C146.994406,452.634832 148.835377,451.079208 149.98087,449.769208 C150.821873,448.55029 151.355283,447.145652 151.535468,445.675458 C156.240172,423.159835 151.985483,402.077024 140.653283,380.789526 Z M162.376743,183.880167 C157.980387,195.468564 151.582856,206.193586 143.476106,215.565789 C141.462128,217.255653 141.071518,220.204929 142.576075,222.361413 C145.56254,227.396726 147.894436,232.800475 151.003632,237.712975 C154.112828,242.625474 157.712949,246.555474 161.108518,250.976724 L162.376743,250.362661 L162.376743,183.880167 Z M190.686788,382.345151 C182.504694,391.433275 181.604664,402.813899 179.150035,413.293898 C176.60758,424.328753 176.945707,435.832641 180.131887,446.698895 C180.928822,449.364072 182.881928,451.528941 185.450248,452.593895 C189.214011,453.33077 189.541295,449.114208 190.359504,446.494208 C190.574137,445.876361 190.671268,445.223764 190.645877,444.570146 C190.686788,423.89671 190.686788,403.305149 190.686788,382.304213 L190.686788,382.345151 Z M133.41213,374.157651 C132.307547,377.473588 130.875681,380.707651 130.098382,384.1464 C129.03471,388.854213 128.993799,393.889525 127.561933,398.474524 C123.385657,410.577159 122.943774,423.656975 126.293708,436.014209 C127.481245,440.822639 131.174646,444.612442 135.948579,445.921083 C137.79754,421.946828 136.877799,397.839188 133.207578,374.075776 L133.41213,374.157651 Z M195.759686,445.880145 C200.717946,444.02079 204.367534,439.734333 205.414557,434.540459 C208.123942,424.250297 208.025047,413.421233 205.128184,403.182336 C203.491765,396.796087 202.919018,390.123275 201.405331,383.696088 C200.369208,380.363937 199.069604,377.119624 197.518836,373.993901 C195.849482,385.919556 194.920397,397.937281 194.736924,409.977961 C193.881659,421.949565 194.224283,433.976735 195.759686,445.880145 L195.759686,445.880145 Z M98.1882156,129.187671 C115.329702,125.462359 126.825544,110.39736 123.061781,97.3382985 C102.279263,99.3851733 97.0427224,109.046423 98.1882156,129.187671 Z M232.333646,128.901108 C233.642781,109.292048 227.506211,98.2389234 206.928244,97.624861 C204.023601,112.771735 218.014982,126.977046 232.415467,128.901108 L232.333646,128.901108 Z M230.90178,177.698605 C230.696559,174.112688 230.696559,170.517959 230.90178,166.932043 C231.474526,161.773918 232.62002,156.697669 233.438229,151.539544 C234.420451,142.518598 230.077954,133.747987 222.310581,129.064858 C221.042357,138.03017 219.528669,147.03642 218.546818,156.083606 C217.564967,166.727355 220.919625,174.710167 230.983601,177.698605 L230.90178,177.698605 Z M99.6609925,177.698605 C107.236882,176.225533 112.511503,169.311214 111.934133,161.610168 C111.402297,150.843607 109.643147,140.117983 108.293102,128.532671 C102.757731,131.854157 98.9250828,137.405469 97.7791109,143.76142 C97.6063935,150.030018 97.9622113,156.302028 98.8427831,162.510793 C99.1700669,167.423293 99.4155297,172.335792 99.7428134,177.493917 L99.6609925,177.698605 Z M147.976257,132.012358 C145.898989,119.241389 138.664884,107.887148 127.971038,100.613298 C128.424248,110.378834 123.777094,119.679283 115.697897,125.175796 L116.147912,126.690484 L147.976257,132.012358 Z M182.791067,131.070807 C193.516883,131.076094 204.157293,129.162882 214.210308,125.421421 C211.036,122.000004 208.174462,118.300837 205.66002,114.368297 C203.901694,110.064668 202.53253,105.611946 201.568973,101.063611 C191.674973,108.266901 184.946757,119.018624 182.791067,131.070807 Z M172.931644,288.475471 L175.263541,354.87609 C175.888167,334.071398 180.33997,313.560147 188.395802,294.37047 L172.931644,288.475471 Z M155.708336,353.975465 L158.244785,288.475471 L142.698807,294.20672 C150.766159,313.20119 155.179859,333.548177 155.708336,354.180153 L155.708336,353.975465 Z M23.7311604,268.620785 C30.4813879,268.620785 38.1316458,260.67891 37.6816306,255.561723 C37.5686608,254.089197 37.0597654,252.674665 36.2088537,251.467974 C34.5926164,248.844357 31.8046156,247.168661 28.7307884,246.973368 C25.6569612,246.778076 22.6795558,248.087472 20.7446961,250.485474 C18.3224685,252.930313 16.2317768,255.68304 14.5263047,258.672973 C13.7490058,260.064848 13.8308267,263.380785 14.812678,264.076723 C17.6422827,265.857786 20.6273083,267.378689 23.7311604,268.620785 Z M306.749791,268.620785 C309.779447,267.477173 312.719537,266.108785 315.545542,264.527035 C316.693152,263.164283 317.035438,261.296035 316.445572,259.614535 C313.893408,255.660188 310.886385,252.019149 307.486179,248.766099 C305.48297,247.482461 303.029252,247.11044 300.735952,247.742661 C296.222295,248.607367 292.959546,252.559619 292.962963,257.158286 C294.898152,263.390884 300.347194,267.878457 306.831612,268.579847 L306.749791,268.620785 Z M262.689215,216.179851 C258.598168,209.097665 253.075255,200.951103 248.452371,192.477041 C245.235599,186.418033 238.944608,182.625206 232.088183,182.611104 C235.413457,198.544602 247.137982,211.406182 262.689215,216.179851 L262.689215,216.179851 Z M65.4598397,217.039539 C83.2149836,210.857977 94.8744675,200.377978 99.006425,181.751417 C92.215287,183.347979 85.9559851,184.821729 83.1331627,190.962353 C79.0960289,200.77799 73.0796593,209.65521 65.4598397,217.039539 L65.4598397,217.039539 Z M281.753494,230.139538 C276.353312,219.823289 270.421294,207.460165 263.507424,195.670166 C259.469428,189.689259 254.98367,184.023616 250.08879,178.722042 L248.820566,179.745479 C251.929761,202.62954 268.212128,216.793914 281.589852,230.221413 L281.753494,230.139538 Z M81.8240276,179.745479 L80.5558031,179.049542 C75.7851478,183.932313 71.446062,189.219359 67.5871841,194.851416 C60.7960461,206.72329 56.7459096,220.150789 47.6228748,230.7536 C62.964301,216.302664 78.7557424,202.220165 81.8240276,179.745479 Z M38.7862133,243.198599 L39.5226018,243.976412 C51.468459,236.689537 63.3324952,229.402663 75.2783524,222.156726 C85.5659873,216.354965 93.1623913,206.739239 96.4290654,195.383603 C90.4561368,206.846102 80.2694298,213.314227 69.6736181,219.946101 C59.0778064,226.577976 49.0956517,235.379537 38.7862133,243.198599 Z M290.221961,243.526099 L290.917439,242.584537 C281.098926,235.052037 271.771339,226.741726 261.38008,220.150789 C250.988821,213.559852 240.433919,207.296415 234.338259,195.874853 C236.524917,204.634963 241.761336,212.32786 249.106939,217.571726 C262.566484,226.577976 276.476043,234.929225 290.221961,243.526099 Z M128.257411,186.459229 L129.975651,228.706725 C139.794163,223.221101 136.562236,196.857353 128.257411,186.459229 Z M200.096196,222.607038 L202.714466,185.763291 C193.345968,197.184853 192.282296,214.787977 200.096196,222.607038 Z M128.461963,445.184208 L135.825848,511.05264 C135.334922,487.882017 137.257714,465.939519 128.461963,445.184208 Z M95.1608408,154.814544 C92.2561974,161.077981 89.8015692,166.15423 87.5105829,171.189543 C86.6235452,172.822194 86.0805234,174.619529 85.9150746,176.47048 C86.1423188,178.302805 86.5816455,180.102486 87.2242096,181.833292 C88.9833599,181.178292 91.5607195,180.973604 92.2971079,179.745479 C94.2410315,176.625161 95.5351286,173.144107 96.1017816,169.511105 C96.1540054,164.595648 95.8394847,159.683146 95.1608408,154.814544 Z M236.056499,156.247356 L234.542812,156.247356 C234.542812,161.569231 234.174617,166.891105 234.542812,172.172042 C234.950147,174.861675 236.097544,177.384781 237.85656,179.458917 C238.961142,180.768917 241.415771,180.932667 243.256742,181.587667 C243.90076,179.817512 244.326645,177.975373 244.524966,176.102042 C244.296582,174.334333 243.770966,172.61803 242.970368,171.025793 C240.720293,166.15423 238.388396,161.200793 236.056499,156.247356 Z M195.596044,508.555453 L202.714466,444.856708 C193.223237,465.325456 196.373343,487.227017 195.596044,508.555453 L195.596044,508.555453 Z M212.942084,330.600155 C215.123253,314.84936 214.360275,298.830109 210.692008,283.358284 C206.682782,299.323907 214.292129,314.757344 212.942084,330.600155 L212.942084,330.600155 Z M120.566243,283.153596 C117.334315,291.341095 115.656986,322.085155 117.784331,331.459842 C118.56163,323.517968 118.848003,315.494218 120.198048,307.634219 C122.220425,299.613542 122.346493,291.231541 120.566243,283.153596 L120.566243,283.153596 Z M235.688305,137.70267 L234.215528,138.316733 L245.465907,169.674855 L246.979594,169.142668 C246.283379,157.800799 242.366146,146.893472 235.688305,137.70267 L235.688305,137.70267 Z M85.1377757,169.92048 L96.224513,138.562358 L94.9971989,138.112045 C88.3697028,146.176732 83.419536,160.341106 85.1377757,169.92048 L85.1377757,169.92048 Z M184.100202,453.82202 L183.281993,454.722645 L190.523146,490.583892 C190.314207,481.289589 189.631478,472.012007 188.477623,462.787332 C187.488914,459.591017 186.012336,456.566866 184.100202,453.82202 L184.100202,453.82202 Z M148.467183,454.47702 C142.330613,457.956707 138.60776,477.115455 141.348761,489.478579 C142.207881,483.870142 142.821538,478.057018 144.007942,472.325768 C145.194345,466.594519 146.830764,460.740457 148.426273,454.47702 L148.467183,454.47702 Z M158.940263,63.1964263 C151.617289,65.6936136 150.267244,71.0154881 152.476409,79.1211125 C157.467486,75.0683003 158.449338,69.6645507 158.899353,63.1964263 L158.940263,63.1964263 Z M172.317987,63.1964263 C171.990703,71.3839256 174.118048,76.3373627 178.822752,78.916425 C179.272767,72.6939255 180.009155,66.389551 172.277077,63.1554888 L172.317987,63.1964263 Z M271.198593,235.133912 C281.344389,247.415161 286.130914,250.567349 290.508334,248.356724 L271.198593,235.133912 Z M40.1362588,248.561411 L41.4863043,250.608286 C49.0138308,248.233911 53.3912511,241.683912 59.0778064,236.853287 L58.3823284,235.911725 L40.1362588,248.561411 Z M329.005087,280.492659 L317.304692,266.164535 C315.422811,269.562347 322.29577,278.445784 329.005087,280.492659 Z M16.0399921,268.21141 C11.9489451,267.22891 3.76685111,275.580159 3.39865688,281.802659 L16.0399921,268.21141 Z M328.43234,276.931097 L330.109669,275.621097 L320.904814,263.339848 L318.81838,264.977348 L328.43234,276.931097 Z M11.1716462,264.649848 L9.45340643,263.585473 L0.453103054,275.866722 L2.2940742,277.176722 C5.23962803,272.632659 9.78069018,269.644222 11.1716462,264.363285 L11.1716462,264.649848 Z M3.6441197,248.725161 C10.5330708,250.662142 17.9314408,249.236105 23.608429,244.877037 L3.6441197,248.725161 Z" id="形状" fill="#000000"></path>
                    <path d="M319.509089,281.029032 L310,270 C312.367408,270.293548 313.94568,270 314.695359,270.712903 C317.584607,273.761835 320.32392,276.967171 322.902374,280.316129 C323.257486,280.735484 322.547263,282.077419 322.310522,283 L319.509089,281.029032 Z" id="路径" fill="#FFFFFF"></path>
                    <path d="M8.40799515,283 C7.89716103,282.094937 6.79690294,280.572785 7.03267254,280.28481 C9.70472789,276.911392 12.5732579,273.620253 15.5596727,270.53481 C16.1490967,269.917722 17.6423041,270.246835 20,270 L9.39036844,282.012658 L8.40799515,283 Z" id="路径" fill="#FFFFFF"></path>
                    <path d="M15.8822007,281 C15.2340159,281 14.0672833,280.712221 14.0240709,280.424442 C13.5055231,277.258874 21.4998021,272.202186 25,273.106634 L15.8822007,281 Z" id="路径" fill="#FFFFFF"></path>
                    <polygon id="路径" fill="#FFFFFF" points="307.535156 275.726027 305 272.232877 306.203125 271 316 278.972603 315.398438 280 312.605469 279.630137"></polygon>
                    <path d="M139.525152,214 C137.759883,206.184374 136.275451,198.247261 134.068864,190.512625 C132.993394,187.288256 131.146882,184.381279 128.692816,182.049071 C118.863474,172.370653 115.573653,159.817056 113.126347,146.939495 C112.043114,141.270129 111.722156,135.43878 111,129 C116.817366,130.417342 122.113175,131.834683 127.449103,133.049547 C131.181778,133.879951 134.959536,134.48843 138.762877,134.871844 C143.767821,135.331353 148.168009,138.404982 150.357488,142.970939 C153.40659,148.397332 157.338327,153.378275 159.905992,159.169128 C161.05496,162.442578 161.304506,165.968936 160.628148,169.373988 C158.822759,181.927585 152.604195,192.739876 146.505991,203.471177 C144.299404,207.156265 141.6515,210.800858 139.525152,214 Z" id="路径" fill="#FFFFFF"></path>
                    <path d="M219,129 C217.030547,148.533114 215.342444,167.69845 200.832797,182.818225 C195.050936,189.489428 191.863709,198.077379 191.869775,206.969 C191.869775,209.543448 191.869775,212.117896 191.869775,216 C184.201799,206.078702 178.01268,195.063397 173.501608,183.308596 C171.439858,176.638368 169.934006,169.80353 169,162.876468 C169.002893,161.165334 169.553072,159.501574 170.567524,158.136214 C173.340836,153.436825 176.717042,149.023485 179.088424,144.119775 C181.502914,138.347554 186.953304,134.489197 193.115756,134.18976 C201.55627,133.372475 209.916399,130.961484 219,129 Z" id="路径" fill="#FFFFFF"></path>
                    <path d="M205.837826,294 C198.686204,292.604167 191.943247,290.797794 185.118557,289.894608 C170.120585,288.129289 162.355967,272.610907 169.957119,258.488358 C171.928144,255.495049 174.084702,252.629298 176.414012,249.908088 C181.726645,242.272059 186.916679,234.594975 192.147579,227 C207.349883,239.76777 210.90526,274.417279 205.837826,294 Z" id="路径" fill="#B0EDE1"></path>
                    <path d="M137.896278,227 L158.164071,254.542631 C162.584463,260.499762 164.075861,268.156236 162.217629,275.352619 C160.231386,283.513398 154.96176,287.593788 145.719646,289.266748 C139.193417,290.409257 132.869866,292.367844 126.343637,294 C121.438831,277.760049 123.749359,241.362972 137.896278,227 Z" id="路径" fill="#B0EDE1"></path>
                    <path d="M167.887677,63 C168.371865,65.9420745 168.694656,68.9658734 169.380589,71.8670858 C170.678047,78.8853966 175.790054,84.5532101 182.5747,86.4957342 C189.474373,88.8657387 196.010905,92.2572968 204,95.7714414 C188.384951,103.330938 181.606325,115.507858 177.732824,130.259093 C175.219253,138.347284 172.228039,146.275207 168.775354,154 L167,153.509654 L167,63.0817243 L167.887677,63 Z" id="路径" fill="#FFFFFF"></path>
                    <path d="M126,95.9823529 C132.737542,92.8529412 138.598007,89.7235294 144.737542,87.3764706 C155.860465,83.2588235 159.847176,78.0705882 160.684385,65.8411765 C160.74108,64.7514744 161.21427,63.7295816 162,63 L162,154 C155.581395,146.217647 153.229236,136.952941 150.637874,127.811765 C146.053156,111.917647 140.671096,104.670588 126,95.9823529 Z" id="路径" fill="#FFFFFF"></path>
                    <path d="M138.843831,296 C149.170717,326.482609 156.524103,357.171739 148.768893,391 C143.857725,384.750725 140.802514,377.179075 139.968939,369.191304 C138.924196,347.176087 138.562554,325.078261 138,303.104348 C138.109173,300.717971 138.391231,298.343277 138.843831,296 L138.843831,296 Z" id="路径" fill="#FFFFFF"></path>
                    <path d="M182.088207,391 C174.683596,357.171739 181.613045,326.358696 192.10621,296 C192.422985,301.947826 193.135728,307.895652 192.977341,313.843478 C192.581372,331.645652 192.066613,349.447826 191.116289,367.208696 C190.182527,375.833877 187.066693,384.044895 182.088207,391 Z" id="路径" fill="#FFFFFF"></path>
                    <path d="M201.104302,377 C199.805663,372.940464 198.846487,368.781695 198.236509,364.565907 C196.966486,341.688801 196.06518,318.730426 195,295 C202.388535,299.250192 207.163861,306.864943 207.741193,315.317146 C210.690923,333.196234 207.987004,350.790882 204.463716,368.141724 C203.849189,371.067393 203.111756,373.993062 202.415292,376.918731 L201.104302,377 Z" id="路径" fill="#FFFFFF"></path>
                    <path d="M136,294 C131.014636,322.116199 137.687958,350.232398 128.816366,377 C123.870257,355.912851 119.630735,334.743968 123.516963,313.002954 C124.245338,304.848993 128.965124,297.664052 136,294 Z" id="路径" fill="#FFFFFF"></path>
                    <path d="M168,187 C174.041096,196.799622 180.986301,208.091367 189,221.036547 C183.246575,229.989288 176.671233,240.47448 169.808219,251 L168,250.233774 L168,187 Z" id="路径" fill="#B0EDE1"></path>
                    <path d="M140.635334,381 C151.634551,402.050317 155.764221,422.858213 151.118342,445.120641 C150.943452,446.571664 150.425716,447.957985 149.609425,449.161009 C148.49759,450.453926 146.710714,452.150881 145.320921,451.989266 C143.598551,451.48747 142.213045,450.182686 141.588335,448.474146 C140.58579,445.438028 140.050032,442.262591 140,439.060088 C140,420.676414 140,402.333143 140,383.989872 C140.152585,382.981172 140.364747,381.98274 140.635334,381 Z" id="路径" fill="#FFFFFF"></path>
                    <path d="M163,184 L163,250.386821 L161.714282,251 C158.271877,246.585113 154.497673,242.415497 151.470015,237.755339 C148.442357,233.09518 145.953871,227.453935 142.926213,222.425869 C141.400903,220.272489 141.796901,217.327457 143.838658,215.640024 C152.057228,206.281309 158.543003,195.571721 163,184 L163,184 Z" id="路径" fill="#B0EDE1"></path>
                    <path d="M189.996104,382 C189.996104,402.901245 189.996104,423.395058 189.996104,443.929614 C190.021137,444.580129 189.925373,445.229629 189.713762,445.844543 C188.705397,448.452105 188.584394,452.648652 184.873613,451.915275 C182.341447,450.855376 180.415835,448.700783 179.630118,446.048258 C176.48879,435.233586 176.155424,423.784307 178.662089,412.801834 C181.041828,402.208611 181.929189,391.044983 189.996104,382 Z" id="路径" fill="#FFFFFF"></path>
                    <path d="M133.436434,374 C137.068048,397.491802 137.927644,421.315407 135.998234,445 C131.176588,443.70528 127.446274,439.955794 126.246869,435.198517 C122.863454,422.972742 123.309753,410.032071 127.527768,398.058186 C128.973945,393.521962 129.015265,388.540217 130.089568,383.882487 C130.874635,380.642327 132.320812,377.280662 133.436434,374 Z" id="路径" fill="#FFFFFF"></path>
                    <path d="M195.469952,445 C193.945976,433.24334 193.605903,421.364446 194.454802,409.540433 C194.636909,397.648196 195.559079,385.77863 197.216009,374 C198.755234,377.087187 200.045165,380.291503 201.073576,383.582574 C202.575998,389.930524 203.144481,396.521071 204.76872,402.828588 C207.644022,412.941255 207.742181,423.636813 205.052962,433.800114 C204.013732,438.929956 200.391307,443.163567 195.469952,445 Z" id="路径" fill="#FFFFFF"></path>
                    <path d="M98.16703,130 C96.9311181,109.763496 102.286736,100.056555 123.214845,98 C127.21096,111.326478 115.510994,126.257069 98.16703,130 Z" id="路径" fill="#FFFFFF"></path>
                    <path d="M231.831716,130 C217.419933,127.989529 203.417576,113.497382 206.406384,98 C227.000493,98.7120419 233.141878,109.937173 231.831716,130 Z" id="路径" fill="#FFFFFF"></path>
                    <path d="M230.288863,178 C220.307091,175.050505 217.087164,167.171717 218.214139,156.666667 C219.180117,147.737374 220.669333,138.848485 221.917054,130 C229.558854,134.622103 233.831147,143.278424 232.864804,152.181818 C232.059822,157.272727 230.932848,162.282828 230.369361,167.373737 C230.140641,170.911384 230.113764,174.459271 230.288863,178 L230.288863,178 Z" id="路径" fill="#FFFFFF"></path>
                    <path d="M99.972,178 C99.6502714,172.859284 99.408975,167.963364 99.0872465,163.067444 C98.2216214,156.879633 97.8718431,150.628791 98.0416288,144.381349 C99.1139786,137.971706 102.888071,132.355096 108.377158,129 C109.704288,140.546211 111.433579,151.235637 111.956387,161.965862 C112.529995,169.615189 107.387025,176.496066 99.972,178 L99.972,178 Z" id="路径" fill="#FFFFFF"></path>
                    <path d="M148,133 L116.447837,127.472727 L116,125.935065 C124.040095,120.35518 128.664757,110.91366 128.21374,101 C138.837766,108.437016 145.993933,120.010571 148,133 Z" id="路径" fill="#FFFFFF"></path>
                    <path d="M182,132 C184.20311,120.346153 191.062324,109.954365 201.141743,103 C202.121834,107.395665 203.514493,111.698927 205.302991,115.8581 C207.86058,119.65864 210.771222,123.23364 214,126.540214 C203.761375,130.160732 192.923848,132.0098 182,132 Z" id="路径" fill="#FFFFFF"></path>
                    <path d="M172,290 L187,295.770654 C179.185964,314.555553 174.867782,334.634151 174.261905,355 L172,290 Z" id="路径" fill="#FFFFFF"></path>
                    <path d="M155.552632,354 C155.03283,333.591238 150.774338,313.465805 143,294.676856 L158,289 L155.552632,354 Z" id="路径" fill="#FFFFFF"></path>
                    <path d="M22.442036,267.999849 C19.4267429,266.775206 16.5295491,265.280146 13.786238,263.533134 C12.8333061,262.86115 12.7538951,259.580288 13.5082995,258.315378 C15.1635387,255.428357 17.1926514,252.770377 19.5435348,250.409688 C21.4214053,248.094224 24.3111144,246.829896 27.2944053,247.018467 C30.2776961,247.207038 32.9835794,248.825057 34.5522121,251.358371 C35.3780611,252.523528 35.8719676,253.889373 35.9816099,255.311216 C36.4183704,260.331329 28.9934427,268.039377 22.442036,267.999849 Z" id="路径" fill="#FFFFFF"></path>
                    <path d="M307.342067,268 C301.034392,267.243291 295.782203,262.732962 294.000003,256.542473 C293.996696,252.026445 297.154188,248.145215 301.522235,247.296048 C303.741553,246.675187 306.116113,247.040523 308.0547,248.301094 C311.345215,251.495688 314.25523,255.071296 316.725062,258.954584 C317.295899,260.605867 316.964655,262.440543 315.854067,263.778806 C313.12517,265.400963 310.279782,266.812022 307.342067,268 Z" id="路径" fill="#FFFFFF"></path>
                    <path d="M262,216 C246.778246,211.228894 235.273417,198.190087 232,182 C238.677125,182.014284 244.803603,185.855836 247.936255,191.992683 C252.63745,200.57561 257.816733,208.826829 262,216 Z" id="路径" fill="#FFFFFF"></path>
                    <path d="M64,217 C71.4956674,209.675963 77.4140104,200.871224 81.3853659,191.135731 C84.1621951,185.045244 90.3195122,183.583527 97,182 C92.7743902,200.758701 81.304878,210.950116 64,217 Z" id="路径" fill="#FFFFFF"></path>
                    <path d="M282,230 C268.51125,216.681529 252.09375,202.632166 249,180.015127 L250.27875,179 C255.214254,184.258527 259.737241,189.878166 263.80875,195.81051 C270.57375,207.504777 276.555,219.767516 282,230 Z" id="路径" fill="#FFFFFF"></path>
                    <path d="M81,179.686461 C77.8684211,201.855107 62.1698565,215.745843 47,230 C56.069378,219.541568 60.0956938,206.296912 66.84689,194.586698 C70.683072,189.031334 74.9966376,183.816282 79.7392344,179 L81,179.686461 Z" id="路径" fill="#FFFFFF"></path>
                    <path d="M38,243.232323 C48.1135557,235.515152 57.782115,227.070707 68.5429383,220.242424 C79.3037615,213.414141 89.0936835,207.353535 95,196 C91.7697569,207.207661 84.2580705,216.698084 74.0851668,222.424242 C62.2725337,229.535354 50.5408091,236.808081 38.728176,244 L38,243.232323 Z" id="路径" fill="#FFFFFF"></path>
                    <path d="M290.109183,243 C276.503977,234.520619 262.736804,226.283505 249.617498,217.400344 C242.34709,212.228145 237.164273,204.640387 235,196 C241.033261,207.265464 251.196674,213.443299 261.765004,219.944158 C272.333333,226.445017 281.281996,234.641753 291,242.071306 L290.109183,243 Z" id="路径" fill="#FFFFFF"></path>
                    <path d="M128,187 C136.456299,197.337209 139.923381,223.627907 129.775823,229 L128,187 Z" id="路径" fill="#FFFFFF"></path>
                    <path d="M199.340786,222 C191.280043,214.36 192.484999,197.16 202,186 L199.340786,222 Z" id="路径" fill="#FFFFFF"></path>
                    <path d="M129,447 C137.361111,467.481666 135.533333,489.134866 136,512 L129,447 Z" id="路径" fill="#FFFFFF"></path>
                    <path d="M94.8648173,155 C95.6327101,159.862147 96.012062,164.771256 95.9997078,169.686364 C95.3951144,173.316845 94.014371,176.795483 91.9402918,179.913636 C91.1545984,181.140909 88.4046714,181.345455 86.5277372,182 C85.7974376,180.275526 85.2847129,178.476959 85,176.640909 C85.1588866,174.855927 85.6929311,173.11803 86.5713868,171.527273 C89.3649634,166.331818 91.7656933,161.259091 94.8648173,155 Z" id="路径" fill="#FFFFFF"></path>
                    <path d="M234.756428,156.084006 C237.301759,161.166397 239.847091,166.248788 242.303112,171.373183 C243.162784,172.967722 243.736151,174.685028 244,176.455574 C243.81976,178.344002 243.399999,180.205368 242.749662,182 C240.740189,181.327948 238.060893,181.159935 236.85521,179.815832 C234.935195,177.6877 233.682778,175.098909 233.23816,172.339257 C232.7023,166.92084 233.23816,161.46042 233.23816,156 L234.756428,156.084006 Z" id="路径" fill="#FFFFFF"></path>
                    <path d="M195,508 C195.764368,486.82455 192.666667,465.244216 202,445 L195,508 Z" id="路径" fill="#FFFFFF"></path>
                    <path d="M211.692849,331 C213.146579,315.238302 204.952828,299.883882 209.269966,284 C213.219959,299.392612 214.041534,315.329846 211.692849,331 L211.692849,331 Z" id="路径" fill="#FFFFFF"></path>
                    <path d="M120.739444,284 C122.536897,292.018842 122.410506,300.341815 120.370371,308.303797 C119.017105,316 118.812064,323.898734 117.950895,332 C115.818475,322.521519 117.499806,292.060759 120.739444,284 Z" id="路径" fill="#FFFFFF"></path>
                    <path d="M234.5,138 C241.301276,147.198798 245.290916,158.115614 246,169.46735 L244.458333,170 L233,138.614597 L234.5,138 Z" id="路径" fill="#FFFFFF"></path>
                    <path d="M84.3607053,171 C82.5568294,161.362934 87.7537101,147.113256 94.7115172,139 L96,139.453024 L84.3607053,171 Z" id="路径" fill="#FFFFFF"></path>
                    <path d="M182.830508,455 C184.654232,457.662366 186.067864,460.592171 187.022599,463.688268 C188.138027,472.752047 188.798019,481.867808 189,491 L182,455.764246 L182.830508,455 Z" id="路径" fill="#FFFFFF"></path>
                    <path d="M148,454 C146.41109,460.263158 144.740697,465.994152 143.5592,471.847953 C142.377703,477.701754 141.766584,483.391813 140.911017,489 C138.181351,476.637427 141.888807,457.479532 148,454 Z" id="路径" fill="#FFFFFF"></path>
                    <path d="M158,63 C157.576004,69.3753213 156.650922,74.9280206 151.909877,79 C149.828443,70.8560411 151.10043,65.3856041 158,63 Z" id="路径" fill="#FFFFFF"></path>
                    <path d="M172.057539,63 C180.071667,66.0859375 179.195121,72.1015625 178.694238,78 C173.89411,75.5390625 171.598396,70.8125 172.057539,63 Z" id="路径" fill="#FFFFFF"></path>
                    <path d="M271,235 L290,248.351106 C285.692797,250.583179 280.983051,247.276404 271,235 Z" id="路径" fill="#FFFFFF"></path>
                    <path d="M40,248.050139 L58.3023758,236 L59,236.896936 C53.2958963,241.420613 48.987041,247.738162 41.3542117,250 L40,248.050139 Z" id="路径" fill="#FFFFFF"></path>
                    <path d="M329,282 C322.299549,280 315.435671,271.32 317.315066,268 L329,282 Z" id="路径" fill="#FFFFFF"></path>
                    <path d="M15,269.081235 L2,283 C2.71521036,276.627553 10.6245955,268.075059 15,269.081235 Z" id="路径" fill="#FFFFFF"></path>
                    <polygon id="路径" fill="#FFFFFF" points="328.217391 278 318 265.681682 320.217391 264 330 276.612613"></polygon>
                    <path d="M314.142035,245.479504 L327,249.359123 C319.742712,251.010546 312.17621,249.439912 306,245 L314.303263,245.871825 L314.142035,245.479504 Z" id="路径" fill="#FFFFFF"></path>
                    <path d="M11,265.349398 C9.57251908,270.789157 4.91221374,273.783133 1.88931298,278 L0,276.650602 L9.23664122,264 L11,265.349398 Z" id="路径" fill="#FFFFFF"></path>
                    <path d="M3,248.097748 L23,244 C17.3128629,248.641836 9.90126661,250.160379 3,248.097748 L3,248.097748 Z" id="路径" fill="#FFFFFF"></path>
                </g>
            </g>
        </g>
    </g>
</svg>